<?xml version="1.0" encoding="UTF-8"?>
<svg id="Layer_1" data-name="Layer 1" xmlns="http://www.w3.org/2000/svg" viewBox="0 0 1000 1000">
  <defs>
    <style>
      .cls-1 {
        fill: #ff705c;
      }

      .cls-2 {
        fill: #1a1a1c;
      }

      .cls-3 {
        fill: #ffee52;
      }
    </style>
  </defs>
  <g>
    <path class="cls-3" d="M301.6,880.73c-67.47,0-140.3-.55-215.68-4.5-10.48-.55-20.18-5.08-27.39-12.78-3.21-2.9-5.69-5.9-7.57-9.16-6.94-12.02-6.93-26.36.03-38.36L473.29,86.45c6.94-11.97,19.34-19.12,33.17-19.12s26.25,7.15,33.17,19.13l421.71,728.4.63,1.09c6.95,12,6.96,26.33.04,38.35-3.5,6.08-8.68,11.09-15,14.49-5.83,3.59-12.31,5.57-18.77,5.71-161.14,3.89-340.24,5.94-532.3,6.1l-43.25.06c-17.18.04-34.19.07-51.08.07Z"/>
    <path class="cls-1" d="M506.46,77.73c10.08,0,19.12,5.2,24.16,13.93l422.34,729.49h.01c5.07,8.75,5.07,19.2.02,27.95-2.7,4.7-6.63,8.27-11.19,10.67-4.19,2.64-8.93,4.22-13.81,4.33-161.03,3.89-340.06,5.94-532.08,6.1l-41.35.06c-17.83.04-35.47.07-52.98.07-71.9,0-141.83-.64-215.14-4.49-8-.42-15.32-3.98-20.63-9.81-2.25-1.99-4.3-4.23-5.88-6.95-5.05-8.75-5.04-19.19.02-27.93L482.29,91.66c5.05-8.72,14.09-13.93,24.17-13.93M506.46,56.92c-17.59,0-33.35,9.08-42.17,24.3L41.97,810.72c-8.84,15.25-8.85,33.48-.04,48.76,2.38,4.12,5.43,7.84,9.3,11.39,9.02,9.48,21.1,15.06,34.14,15.74,75.61,3.97,148.61,4.52,216.22,4.52,17.35,0,35.2-.04,52.47-.07h.55s41.33-.06,41.33-.06c192.11-.16,371.29-2.21,532.55-6.1,8.19-.19,16.38-2.64,23.71-7.1,7.9-4.32,14.39-10.64,18.81-18.32,8.8-15.27,8.79-33.49-.05-48.75l-1.33-2.29h0S548.63,81.23,548.63,81.23c-8.79-15.22-24.55-24.31-42.16-24.31h0Z"/>
  </g>
  <path class="cls-2" d="M891.27,550.83c-.54-19.93-4.4-37.78-11.81-54.55-32.79-74.25-101.12-111.33-182.82-99.13-13.72,2.04-27.31,5.42-40.46,10.07-4.59-5.9-11.06-8.41-20.96-8.43h-48.91c-5.48.01-10.49,3.47-12.5,9.01-7,19.23-68.95,189.41-88.85,242.25-3.48,9.26-17.51,39.11-51.18,33.33-7.39-1.24-14.04-5.79-18.23-12.44-3.95-6.27-5.11-13.66-3.21-20.29l.84-2.94c1.98-6.93,4.23-14.79,6.9-21.83l77.9-205.6c1.52-4.03.98-8.58-1.49-12.17-2.47-3.55-6.5-5.61-10.83-5.67-24.8-.36-50.64-.16-57.61-.07-12.63.16-21.61,6.36-25.76,18.11-11.7,33.29-23.59,65.86-35.32,96.79-6.49,17.14-12.6,35.2-18,51.12-7.11,21.02-14.46,42.76-22.86,63.48-5.41,13.36-12.68,28.45-25.44,39.1-15.91,13.28-40.65,20.22-63.86,15.44-29.56-6.1-33.63-35.2-32.67-51.49.98-16.66,6.54-32.78,12.54-49.19,13.36-36.66,40.52-109.42,61.08-163.04,1.57-4.06,1.02-8.62-1.44-12.18-2.45-3.58-5.02-5.74-10.84-5.72-6.41.02-47.28-.22-53.01-.01-7.01.25-12.52,1.64-17.59,5-11.53,7.66-26.65,22.12-44.2,38.89-24.08,23.02-54.07,51.65-83.29,70.58-3.68,2.37-5.93,6.43-6.02,10.82-.09,4.38,2.02,8.51,5.67,11.06,3.23,2.26,6.26,2.2,11.61,1.19.45-.05.9-.14,1.34-.26,8.22-1.68,26.46-6.29,67.18-16.72-11.59,29.32-23.36,60.75-29.22,94.51-7.16,41.05,3,79.42,29.35,110.97,42.37,50.71,112.11,52.68,159.03,33.1,17.65-7.39,31.23-19.4,42.31-31.33,22.13,29.26,61.48,41.69,94.02,38.44-2.66,7.14-5.63,15.2-8.8,23.78l-3.45,9.32c-14.5,39.22-32.53,88.03-42.39,113.28-3.33,8.53-2.51,17.36,2.24,24.26,4.68,6.79,12.63,10.68,22.13,10.68l47.68-.37h.06c5.63,0,10.51-3.42,12.43-8.73,7.75-21.59,19.25-53.52,30.85-85.73l11.58-32.15c12.61-35,23.83-66.14,28.52-79.32l11.41-31.89c5.13,5.98,10.62,11.43,16.43,16.34,39.71,33.47,85.93,46.08,137.38,37.6,43.93-7.28,81.66-25.41,112.14-53.91,48.48-45.29,72.17-100.27,70.45-163.42l.02.06ZM793.34,567.46c-5.79,43.05-25.94,75.78-59.95,97.29-17.81,11.26-36.91,16.97-56.79,16.97h-.39c-31.36-.09-57.86-19.65-67.51-49.84-1.6-5-2.8-10.44-3.69-16.6-.28-2.02-.39-4.04-.57-6.84l-.21-1.98c1.68-30.7,12.39-58.07,31.84-81.33,20.75-24.83,47.84-38.52,80.47-40.69,1.7-.11,3.39-.17,5.07-.17,27.59,0,50.73,14.99,63.51,41.11,7.2,14.73,9.98,28.88,8.21,42.07h0Z"/>
  <path class="cls-1" d="M726.77,394.86c68.18,0,124.04,36.5,152.7,101.42,7.4,16.78,11.27,34.62,11.81,54.55,1.73,63.14-21.97,118.11-70.45,163.42-30.48,28.5-68.21,46.63-112.14,53.91-10.35,1.71-20.49,2.56-30.42,2.56-39.37,0-75.24-13.43-106.96-40.15-5.8-4.89-11.3-10.36-16.43-16.34l-11.41,31.89c-4.71,13.19-15.92,44.32-28.52,79.34l-11.59,32.15c-11.59,32.21-23.1,64.14-30.85,85.73-1.92,5.3-6.79,8.72-12.43,8.72h-.06l-47.68.37c-9.5,0-17.45-3.9-22.13-10.68-4.75-6.88-5.57-15.72-2.24-24.26,9.86-25.27,27.9-74.07,42.39-113.28l3.45-9.32c3.17-8.59,6.15-16.63,8.8-23.78-3.36.33-6.79.5-10.27.5-30.2,0-63.89-12.71-83.74-38.95-11.08,11.93-24.65,23.94-42.32,31.33-17.3,7.23-37.69,11.52-58.68,11.52-35.94,0-73.59-12.59-100.35-44.6-26.35-31.55-36.5-69.92-29.35-110.98,5.86-33.76,17.63-65.18,29.22-94.51-40.72,10.43-58.95,15.04-67.18,16.72-.44.12-.89.2-1.34.25-2.19.42-3.98.66-5.57.66-2.29,0-4.12-.53-6.04-1.87-3.65-2.56-5.75-6.69-5.67-11.08.1-4.39,2.35-8.45,6.02-10.82,29.22-18.93,59.21-47.57,83.29-70.58,17.54-16.77,32.68-31.23,44.2-38.89,5.07-3.37,10.59-4.76,17.59-5,1.72-.06,6.61-.09,12.79-.09,13.39,0,32.81.1,39.06.1h1.27c5.77,0,8.32,2.15,10.75,5.7,2.46,3.55,3.01,8.13,1.44,12.18-20.57,53.63-47.73,126.37-61.08,163.04-6,16.41-11.56,32.53-12.54,49.19-.96,16.29,3.11,45.39,32.67,51.49,4.98,1.03,10.02,1.51,15.04,1.51,18.37,0,36.32-6.53,48.82-16.95,12.75-10.65,20.02-25.72,25.44-39.1,8.4-20.73,15.76-42.46,22.86-63.49,5.4-15.92,11.5-33.98,17.99-51.12,11.73-30.93,23.61-63.5,35.32-96.79,4.14-11.75,13.13-17.95,25.76-18.11,3.93-.05,13.92-.14,26.35-.14,9.53,0,20.49.05,31.26.2,4.33.06,8.36,2.11,10.83,5.67,2.47,3.59,3.01,8.14,1.49,12.17l-77.9,205.6c-2.67,7.06-4.92,14.91-6.9,21.85l-.84,2.93c-1.91,6.61-.74,14,3.21,20.27,4.19,6.66,10.84,11.2,18.23,12.45,2.93.5,5.72.74,8.36.74,27.67,0,39.65-25.62,42.82-34.07,19.9-52.84,81.86-223.02,88.85-242.25,2.03-5.54,7.02-9,12.5-9.02h48.91c9.88.02,16.38,2.53,20.96,8.43,13.16-4.64,26.74-8.02,40.46-10.07,10.27-1.54,20.32-2.29,30.12-2.29M676.21,681.72h.39c19.87,0,38.97-5.7,56.79-16.98,34.01-21.49,54.16-54.22,59.95-97.27,1.76-13.19-1.01-27.34-8.22-42.07-12.79-26.14-35.92-41.12-63.51-41.12-1.67,0-3.36.06-5.07.17-32.63,2.16-59.71,15.86-80.47,40.69-19.45,23.26-30.17,50.63-31.84,81.33l.21,1.97c.17,2.78.28,4.82.57,6.84.89,6.15,2.09,11.59,3.69,16.6,9.65,30.18,36.15,49.74,67.51,49.84M726.77,376.74c-10.72,0-21.75.84-32.8,2.48-11.37,1.7-22.68,4.24-33.76,7.6-6.77-4.12-15.04-6.15-24.96-6.16h-48.93c-13.36.05-24.92,8.26-29.54,20.93-.68,1.87-67.73,186.17-88.79,242.08-2.52,6.71-10.09,22.33-25.86,22.33-1.67,0-3.45-.16-5.29-.47-2.32-.39-4.54-1.98-5.96-4.25-1.17-1.87-1.6-3.96-1.13-5.58l.85-2.95c1.88-6.59,4.01-14.03,6.43-20.42l77.89-205.59c3.63-9.6,2.32-20.38-3.49-28.87-5.82-8.36-15.32-13.39-25.51-13.54-10.87-.16-21.92-.21-31.54-.21-12.53,0-22.6.09-26.57.14-20.42.26-35.95,11.27-42.62,30.22-11.68,33.22-23.51,65.64-35.17,96.39-6.49,17.14-12.56,35.06-17.91,50.86l-.3.87c-7.01,20.72-14.24,42.12-22.49,62.49-4.56,11.26-10.54,23.88-20.25,31.98-9.57,7.98-23.46,12.74-37.19,12.74-3.89,0-7.71-.38-11.37-1.13-17.34-3.58-18.86-21.99-18.23-32.67.82-13.97,5.68-28.2,11.47-44.04,13.17-36.15,40.23-108.65,60.98-162.77,3.71-9.61,2.43-20.47-3.45-28.99-6.21-9.09-14.63-13.52-25.66-13.52h-1.27l-12.76-.04c-8.21-.02-18.32-.06-26.3-.06-6.49,0-11.63.02-13.44.1-10.73.38-19.31,2.93-26.99,8.03-12.85,8.54-28.5,23.49-46.63,40.83-23.57,22.52-52.84,50.49-80.68,68.52-8.72,5.62-14.06,15.2-14.31,25.61-.22,10.49,4.79,20.32,13.4,26.35,4.97,3.47,10.33,5.14,16.43,5.14,3.07,0,5.94-.43,8.4-.89.86-.12,1.71-.28,2.54-.49,5.91-1.23,16.09-3.71,33.82-8.21-7.29,20.54-13.77,42.18-17.77,65.21-8.1,46.46,3.42,89.93,33.29,125.71,27.54,32.96,68.12,51.12,114.26,51.12,22.73,0,45.44-4.46,65.68-12.92,14.11-5.9,25.63-14.15,34.74-22.13,18.33,16.31,42.74,27.1,68.7,30.22l-3.37,9.11c-13.63,36.9-32.3,87.41-42.28,113-5.54,14.21-4.02,29.2,4.19,41.12,8.13,11.79,21.64,18.53,37.07,18.53l47.81-.37c13.29,0,24.87-8.13,29.41-20.69,5.82-16.2,13.73-38.19,22.2-61.74l8.64-24,11.58-32.15c12.61-35.03,23.84-66.19,28.55-79.38l1.93-5.41c34.3,27.91,73.23,42.05,115.78,42.05,10.87,0,22.09-.95,33.37-2.8,47.54-7.87,88.43-27.58,121.57-58.56,52.44-48.99,78.07-108.6,76.19-177.15-.6-22.31-4.97-42.4-13.35-61.37-31.5-71.32-93.2-112.22-169.29-112.22h.04ZM622.42,606.03c1.71-26.13,10.98-49.42,27.56-69.27,17.46-20.89,40.26-32.4,67.77-34.23,1.27-.07,2.57-.14,3.86-.14,20.69,0,37.46,10.99,47.22,30.96,5.62,11.47,7.81,22.13,6.53,31.69-5.04,37.47-22.42,65.87-51.66,84.35-14.86,9.41-30.71,14.18-47.09,14.18h-.34c-23.33-.07-43.08-14.69-50.3-37.23-1.28-4.01-2.26-8.5-3.01-13.67-.18-1.35-.26-2.79-.37-4.67l-.04-.69-.02-.42-.05-.42-.05-.45h-.01Z"/>
</svg>